<svg width="123" height="21" viewBox="0 0 123 21" fill="none" xmlns="http://www.w3.org/2000/svg">
<path d="M16.1494 13.606C16 15.6714 15.2354 17.2974 13.8555 18.4839C12.4844 19.6704 10.6738 20.2637 8.42383 20.2637C5.96289 20.2637 4.0249 19.4375 2.60986 17.7852C1.20361 16.124 0.500488 13.8477 0.500488 10.9561V9.78271C0.500488 7.93701 0.825684 6.31104 1.47607 4.90479C2.12646 3.49854 3.05371 2.42188 4.25781 1.6748C5.4707 0.918945 6.87695 0.541016 8.47656 0.541016C10.6914 0.541016 12.4756 1.13428 13.8291 2.3208C15.1826 3.50732 15.9648 5.17285 16.1758 7.31738H12.2207C12.124 6.07812 11.7769 5.18164 11.1792 4.62793C10.5903 4.06543 9.68945 3.78418 8.47656 3.78418C7.1582 3.78418 6.16943 4.25879 5.51025 5.20801C4.85986 6.14844 4.52588 7.61182 4.5083 9.59814V11.0483C4.5083 13.1226 4.82031 14.6387 5.44434 15.5967C6.07715 16.5547 7.07031 17.0337 8.42383 17.0337C9.64551 17.0337 10.5552 16.7568 11.1528 16.2031C11.7593 15.6406 12.1064 14.7749 12.1943 13.606H16.1494ZM18.7466 20V0.804688H24.6528C26.3403 0.804688 27.8477 1.18701 29.1748 1.95166C30.5107 2.70752 31.5522 3.78857 32.2993 5.19482C33.0464 6.59229 33.4199 8.18311 33.4199 9.96729V10.8506C33.4199 12.6348 33.0508 14.2212 32.3125 15.6099C31.583 16.9985 30.5503 18.0752 29.2144 18.8398C27.8784 19.6045 26.3711 19.9912 24.6924 20H18.7466ZM22.7017 4.0083V16.8228H24.6133C26.1602 16.8228 27.3423 16.3174 28.1597 15.3066C28.9771 14.2959 29.3945 12.8501 29.4121 10.9692V9.9541C29.4121 8.00293 29.0078 6.52637 28.1992 5.52441C27.3906 4.51367 26.2085 4.0083 24.6528 4.0083H22.7017Z" fill="#6F74FB"/>
<path d="M36.3071 20V0.804688H43.0308C45.3599 0.804688 47.1265 1.25293 48.3306 2.14941C49.5347 3.03711 50.1367 4.34229 50.1367 6.06494C50.1367 7.00537 49.895 7.83594 49.4116 8.55664C48.9282 9.26855 48.2559 9.7915 47.3945 10.1255C48.3789 10.3716 49.1523 10.8682 49.7148 11.6152C50.2861 12.3623 50.5718 13.2764 50.5718 14.3574C50.5718 16.2031 49.9829 17.6006 48.8052 18.5498C47.6274 19.499 45.9487 19.9824 43.769 20H36.3071ZM40.2622 11.6416V16.8228H43.6504C44.582 16.8228 45.3071 16.603 45.8257 16.1636C46.353 15.7153 46.6167 15.1001 46.6167 14.3179C46.6167 12.5601 45.707 11.668 43.8877 11.6416H40.2622ZM40.2622 8.84668H43.189C45.1841 8.81152 46.1816 8.01611 46.1816 6.46045C46.1816 5.59033 45.9268 4.96631 45.417 4.58838C44.916 4.20166 44.1206 4.0083 43.0308 4.0083H40.2622V8.84668ZM60.6572 12.9731H57.5063V20H53.5513V0.804688H60.6836C62.9512 0.804688 64.7002 1.31006 65.9307 2.3208C67.1611 3.33154 67.7764 4.75977 67.7764 6.60547C67.7764 7.91504 67.4907 9.00928 66.9194 9.88818C66.3569 10.7583 65.5 11.4526 64.3486 11.9712L68.5015 19.8154V20H64.2563L60.6572 12.9731ZM57.5063 9.76953H60.6968C61.6899 9.76953 62.459 9.51904 63.0039 9.01807C63.5488 8.5083 63.8213 7.80957 63.8213 6.92188C63.8213 6.0166 63.562 5.30469 63.0435 4.78613C62.5337 4.26758 61.7471 4.0083 60.6836 4.0083H57.5063V9.76953ZM86.563 10.8374C86.563 12.7271 86.229 14.3838 85.561 15.8076C84.8931 17.2314 83.9351 18.3301 82.687 19.1035C81.4478 19.877 80.0239 20.2637 78.4155 20.2637C76.8247 20.2637 75.4053 19.8813 74.1572 19.1167C72.9092 18.3521 71.9424 17.2622 71.2568 15.8472C70.5713 14.4233 70.2241 12.7886 70.2153 10.9429V9.99365C70.2153 8.104 70.5537 6.44287 71.2305 5.01025C71.916 3.56885 72.8784 2.46582 74.1177 1.70117C75.3657 0.927734 76.7896 0.541016 78.3892 0.541016C79.9888 0.541016 81.4082 0.927734 82.6475 1.70117C83.8955 2.46582 84.8579 3.56885 85.5347 5.01025C86.2202 6.44287 86.563 8.09961 86.563 9.98047V10.8374ZM82.5552 9.96729C82.5552 7.95459 82.1948 6.42529 81.4741 5.37939C80.7534 4.3335 79.7251 3.81055 78.3892 3.81055C77.062 3.81055 76.0381 4.3291 75.3174 5.36621C74.5967 6.39453 74.2319 7.90625 74.2231 9.90137V10.8374C74.2231 12.7974 74.5835 14.3179 75.3042 15.3989C76.0249 16.48 77.062 17.0205 78.4155 17.0205C79.7427 17.0205 80.7622 16.502 81.4741 15.4648C82.186 14.4189 82.5464 12.8984 82.5552 10.9033V9.96729ZM103.965 0.804688V13.4478C103.965 15.5483 103.306 17.2095 101.988 18.4312C100.678 19.6528 98.8853 20.2637 96.6089 20.2637C94.3677 20.2637 92.5879 19.6704 91.2695 18.4839C89.9512 17.2974 89.2788 15.667 89.2524 13.5928V0.804688H93.2075V13.4741C93.2075 14.731 93.5063 15.6494 94.104 16.2295C94.7104 16.8008 95.5454 17.0864 96.6089 17.0864C98.8325 17.0864 99.9619 15.9175 99.9971 13.5796V0.804688H103.965ZM113.22 12.3008L111.164 14.5156V20H107.208V0.804688H111.164V9.50586L112.904 7.11963L117.795 0.804688H122.66L115.844 9.33447L122.857 20H118.151L113.22 12.3008Z" fill="black"/>
</svg>
